<svg width="1920" height="955" viewBox="0 0 1920 955" fill="none" xmlns="http://www.w3.org/2000/svg">
<g filter="url(#filter0_d_12_2)">
<rect x="293.5" y="312.5" width="1417" height="557" rx="38.5" fill="white"/>
<rect x="293.5" y="312.5" width="1417" height="557" rx="38.5" stroke="white"/>
<mask id="mask0_12_2" style="mask-type:alpha" maskUnits="userSpaceOnUse" x="211" y="-273" width="1530" height="1143">
<rect x="211" y="-273" width="1530" height="1143" rx="39" fill="#060927"/>
</mask>
<g mask="url(#mask0_12_2)">
<path d="M211 35H1741V831C1741 852.539 1723.54 870 1702 870H250C228.461 870 211 852.539 211 831V35Z" fill="url(#paint0_linear_12_2)"/>
<path d="M211 35H1741V831C1741 852.539 1723.54 870 1702 870H250C228.461 870 211 852.539 211 831V35Z" fill="url(#paint1_linear_12_2)" fill-opacity="0.2"/>
<path d="M1583.5 280.325C1583.5 279.593 1583.28 279 1583 279C1582.72 279 1582.5 279.593 1582.5 280.325C1582.5 284.716 1581.16 288.275 1579.5 288.275C1579.22 288.275 1579 288.868 1579 289.6C1579 290.332 1579.22 290.925 1579.5 290.925C1581.16 290.925 1582.5 294.484 1582.5 298.875C1582.5 299.607 1582.72 300.2 1583 300.2C1583.28 300.2 1583.5 299.607 1583.5 298.875C1583.5 294.484 1584.84 290.925 1586.5 290.925C1586.78 290.925 1587 290.332 1587 289.6C1587 288.868 1586.78 288.275 1586.5 288.275C1584.84 288.275 1583.5 284.716 1583.5 280.325Z" fill="white" fill-opacity="0.5"/>
<path d="M303.35 312.125C303.35 311.393 303.126 310.8 302.85 310.8C302.574 310.8 302.35 311.393 302.35 312.125C302.35 316.516 301.007 320.075 299.35 320.075C299.074 320.075 298.85 320.668 298.85 321.4C298.85 322.132 299.074 322.725 299.35 322.725C301.007 322.725 302.35 326.284 302.35 330.675C302.35 331.407 302.574 332 302.85 332C303.126 332 303.35 331.407 303.35 330.675C303.35 326.284 304.693 322.725 306.35 322.725C306.626 322.725 306.85 322.132 306.85 321.4C306.85 320.668 306.626 320.075 306.35 320.075C304.693 320.075 303.35 316.516 303.35 312.125Z" fill="white" fill-opacity="0.5"/>
<path d="M1439.5 526.5C1439.5 526.224 1439.28 526 1439 526C1438.72 526 1438.5 526.224 1438.5 526.5C1438.5 528.157 1437.16 529.5 1435.5 529.5C1435.22 529.5 1435 529.724 1435 530C1435 530.276 1435.22 530.5 1435.5 530.5C1437.16 530.5 1438.5 531.843 1438.5 533.5C1438.5 533.776 1438.72 534 1439 534C1439.28 534 1439.5 533.776 1439.5 533.5C1439.5 531.843 1440.84 530.5 1442.5 530.5C1442.78 530.5 1443 530.276 1443 530C1443 529.724 1442.78 529.5 1442.5 529.5C1440.84 529.5 1439.5 528.157 1439.5 526.5Z" fill="white" fill-opacity="0.5"/>
<path d="M413.625 616.625C413.625 616.28 413.345 616 413 616C412.655 616 412.375 616.28 412.375 616.625C412.375 618.696 410.696 620.375 408.625 620.375C408.28 620.375 408 620.655 408 621C408 621.345 408.28 621.625 408.625 621.625C410.696 621.625 412.375 623.304 412.375 625.375C412.375 625.72 412.655 626 413 626C413.345 626 413.625 625.72 413.625 625.375C413.625 623.304 415.304 621.625 417.375 621.625C417.72 621.625 418 621.345 418 621C418 620.655 417.72 620.375 417.375 620.375C415.304 620.375 413.625 618.696 413.625 616.625Z" fill="white" fill-opacity="0.5"/>
<rect x="511" y="864" width="17" height="16" rx="8" fill="white" fill-opacity="0.04"/>
<rect x="511.5" y="864.5" width="16" height="15" rx="7.5" stroke="url(#paint2_linear_12_2)" stroke-opacity="0.62"/>
<rect x="1410" y="864" width="17" height="16" rx="8" fill="white" fill-opacity="0.04"/>
<rect x="1410.5" y="864.5" width="16" height="15" rx="7.5" stroke="url(#paint3_linear_12_2)" stroke-opacity="0.62"/>
</g>
</g>
<path d="M1264.5 361.5C1264.5 361.224 1264.28 361 1264 361C1263.72 361 1263.5 361.224 1263.5 361.5C1263.5 363.157 1262.16 364.5 1260.5 364.5C1260.22 364.5 1260 364.724 1260 365C1260 365.276 1260.22 365.5 1260.5 365.5C1262.16 365.5 1263.5 366.843 1263.5 368.5C1263.5 368.776 1263.72 369 1264 369C1264.28 369 1264.5 368.776 1264.5 368.5C1264.5 366.843 1265.84 365.5 1267.5 365.5C1267.78 365.5 1268 365.276 1268 365C1268 364.724 1267.78 364.5 1267.5 364.5C1265.84 364.5 1264.5 363.157 1264.5 361.5Z" fill="white" fill-opacity="0.5"/>
<path d="M709.5 361.5C709.5 361.224 709.276 361 709 361C708.724 361 708.5 361.224 708.5 361.5C708.5 363.157 707.157 364.5 705.5 364.5C705.224 364.5 705 364.724 705 365C705 365.276 705.224 365.5 705.5 365.5C707.157 365.5 708.5 366.843 708.5 368.5C708.5 368.776 708.724 369 709 369C709.276 369 709.5 368.776 709.5 368.5C709.5 366.843 710.843 365.5 712.5 365.5C712.776 365.5 713 365.276 713 365C713 364.724 712.776 364.5 712.5 364.5C710.843 364.5 709.5 363.157 709.5 361.5Z" fill="white" fill-opacity="0.5"/>
<defs>
<filter id="filter0_d_12_2" x="151" y="3.05176e-05" width="1650" height="955" filterUnits="userSpaceOnUse" color-interpolation-filters="sRGB">
<feFlood flood-opacity="0" result="BackgroundImageFix"/>
<feColorMatrix in="SourceAlpha" type="matrix" values="0 0 0 0 0 0 0 0 0 0 0 0 0 0 0 0 0 0 127 0" result="hardAlpha"/>
<feOffset dy="25"/>
<feGaussianBlur stdDeviation="30"/>
<feComposite in2="hardAlpha" operator="out"/>
<feColorMatrix type="matrix" values="0 0 0 0 0 0 0 0 0 0 0 0 0 0 0 0 0 0 0.62 0"/>
<feBlend mode="normal" in2="BackgroundImageFix" result="effect1_dropShadow_12_2"/>
<feBlend mode="normal" in="SourceGraphic" in2="effect1_dropShadow_12_2" result="shape"/>
</filter>
<linearGradient id="paint0_linear_12_2" x1="976" y1="35" x2="976" y2="870" gradientUnits="userSpaceOnUse">
<stop stop-color="#020413"/>
<stop offset="0.75" stop-color="#0C1032"/>
<stop offset="1" stop-color="#0D1245"/>
</linearGradient>
<linearGradient id="paint1_linear_12_2" x1="1639.18" y1="870" x2="245.086" y2="-0.0971245" gradientUnits="userSpaceOnUse">
<stop stop-opacity="0"/>
<stop offset="0.769231" stop-color="#6D5D2A" stop-opacity="0.427885"/>
<stop offset="1" stop-color="#FFF1AC"/>
</linearGradient>
<linearGradient id="paint2_linear_12_2" x1="519.5" y1="864" x2="519.5" y2="880" gradientUnits="userSpaceOnUse">
<stop stop-color="#2F498A"/>
<stop offset="1" stop-color="#0C1324" stop-opacity="0.62"/>
</linearGradient>
<linearGradient id="paint3_linear_12_2" x1="1418.5" y1="864" x2="1418.5" y2="880" gradientUnits="userSpaceOnUse">
<stop stop-color="#2F498A"/>
<stop offset="1" stop-color="#0C1324" stop-opacity="0.62"/>
</linearGradient>
</defs>
</svg>
